<?xml version="1.0" encoding="UTF-8" standalone="no"?>
<!-- Created with Inkscape (http://www.inkscape.org/) -->

<svg
   width="180mm"
   height="70mm"
   viewBox="0 0 180 70"
   version="1.1"
   id="svg1"
   xml:space="preserve"
   xmlns="http://www.w3.org/2000/svg"
   xmlns:svg="http://www.w3.org/2000/svg"><defs
     id="defs1" /><g
     id="layer1"><path
       id="path5"
       style="opacity:1;fill:#aab8c1;fill-opacity:1;stroke:#002f49;stroke-width:1.0298;stroke-linecap:square;stroke-linejoin:round;stroke-dasharray:none;stroke-opacity:1"
       d="m 140.52965,63.895581 c -0.7208,0.519802 -1.99288,1.083339 -3.08228,1.098766 M 126.92915,46.745004 c -2.42623,0.966725 -3.22007,2.786855 -3.51374,4.361532 M 8.4549184,51.094591 c 2.2928186,0.03131 3.7218356,0.894968 4.6007476,1.764614 M 8.0984655,69.659186 C 63.292999,69.650986 118.93741,70 174.02252,69.784224 c 1.22945,-0.0048 3.03501,0.191286 4.20498,-0.241704 1.1135,-0.412085 2.42479,-2.47393 0.11592,-3.807747 -2.3242,-1.342664 -9.68543,-1.162758 -37.81377,-1.839161 7.52553,-7.698455 -2.25771,-21.050605 -13.6005,-17.150577 2.5816,-8.861532 -9.24774,-15.386705 -16.06519,-10.341364 -0.41954,0.853889 -0.81062,1.748095 -1.43396,2.589864 C 120.64382,21.710001 100.13983,0.77765873 65.56456,0.51717087 30.989287,0.25668297 11.70828,22.482186 21.224141,40.178557 20.606429,39.252962 20.340829,38.330272 20.000402,37.46457 16.97314,35.145286 11.981005,35.232057 8.9609734,37.685411 5.3279473,40.636735 4.2197023,46.64256 8.4549194,51.094591 -1.5227671,52.112126 -2.5970647,69.660473 8.0984655,69.658929 Z" /></g></svg>
